<svg width="400" height="120" viewBox="0 0 400 120" xmlns="http://www.w3.org/2000/svg">
  <rect width="400" height="120" rx="16" fill="#0C447C"/>
  <g transform="translate(60, 60)">
    <path d="M0,-42 C-23,-42 -42,-23 -42,0 C-42,16 -32,30 0,52 C32,30 42,16 42,0 C42,-23 23,-42 0,-42 Z" fill="#FFFFFF"/>
    <path d="M0,-30 C-16,-30 -30,-16 -30,0 C-30,11 -22,22 0,37 C22,22 30,11 30,0 C30,-16 16,-30 0,-30 Z" fill="#0C447C"/>
    <path d="M0,14 C0,14 -14,4 -14,-4 C-14,-11 -9,-16 0,-11 C9,-16 14,-11 14,-4 C14,4 0,14 0,14 Z" fill="#FFFFFF"/>
  </g>
  <text x="120" y="45" font-family="system-ui, sans-serif" font-weight="700" font-size="32" fill="#FFFFFF">Sudbury</text>
  <text x="120" y="76" font-family="system-ui, sans-serif" font-weight="400" font-size="22" fill="#85B7EB">Connect</text>
  <text x="120" y="100" font-family="system-ui, sans-serif" font-size="13" fill="#B5D4F4">Find help near you · Trouver l'aide près de chez vous</text>
</svg>
